<svg xmlns="http://www.w3.org/2000/svg" xml:space="preserve" id="Ebene_1" width="400" height="64" x="0" y="0" version="1.1"><style id="style1" type="text/css">.st0{fill:#fff}</style><g id="g18" transform="translate(-10.035 -8.752)scale(1.68852)"><path id="rect1" d="M104.31 7.19h22.32v3.14h-22.32z" class="st0"/><path id="rect2" d="M104.31 14.86h22.32V18h-22.32z" class="st0"/><path id="rect3" d="M104.31 22.53h22.32v3.14h-22.32z" class="st0"/><path id="rect4" d="M104.31 30.19h22.32v3.14h-22.32z" class="st0"/><path id="rect5" d="M104.31 37.86h22.32V41h-22.32z" class="st0"/><path id="polygon5" d="M7.25 13.14h8.8v27.85h6.59V13.14h8.8V7.27H7.25z" class="st0"/><path id="polygon6" d="M43.38 40.99v-20.7l13.35 20.7h5.87V7.27h-6.58v20.65L42.67 7.27h-5.88v33.72z" class="st0"/><path id="path6" d="M91.25 37.43c-2.6 2.65-5.73 3.84-9.52 3.84q-5.4 0-9.09-3.69c-1.47-1.47-2.37-3.18-2.75-5.07s-.57-4.69-.57-8.38.19-6.49.57-8.38c.38-1.94 1.28-3.6 2.75-5.06Q76.345 7 81.73 7c7.67 0 11.79 4.92 12.69 10.8h-6.63c-.8-3.27-2.79-4.92-6.06-4.92-1.75 0-3.17.62-4.21 1.8-1.23 1.56-1.61 2.8-1.61 9.47 0 6.63.28 7.96 1.61 9.52.99 1.18 2.41 1.75 4.21 1.75 1.94 0 3.51-.62 4.69-1.89.99-1.14 1.51-2.65 1.51-4.5v-1.28h-4.75v-5.49h11.28v4.92c.01 4.91-.89 7.79-3.21 10.25" class="st0"/><path id="polygon7" d="M140.17 19.46h-1.85V8.87h-3.38V7.2h8.61v1.67h-3.38z" class="st0"/><path id="polygon8" d="M145.66 7.2h7.84v1.67h-5.98v3.58h5.1v1.66h-5.1v3.68h5.98v1.67h-7.84z" class="st0"/><path id="path8" d="M160 19.56c-1.27 0-2.38-.46-3.22-1.31-1.2-1.21-1.19-2.56-1.19-4.92s-.02-3.72 1.19-4.92c.84-.85 1.95-1.31 3.22-1.31 2.26 0 3.94 1.33 4.37 3.77h-1.9c-.29-1.24-1.12-2.1-2.48-2.1-.72 0-1.38.27-1.81.74-.6.65-.74 1.36-.74 3.82s.14 3.17.74 3.82c.43.46 1.09.74 1.81.74 1.36 0 2.2-.86 2.5-2.1h1.88c-.4 2.45-2.15 3.77-4.37 3.77" class="st0"/><path id="polygon9" d="M173.69 14.11h-4.97v5.35h-1.86V7.2h1.86v5.24h4.97V7.2h1.86v12.26h-1.86z" class="st0"/><path id="polygon10" d="m180.46 7.2 5.66 8.61V7.2h1.86v12.26h-1.7l-5.67-8.63v8.63h-1.85V7.2z" class="st0"/><path id="path10" d="M198.38 18.25c-.85.84-1.93 1.31-3.24 1.31-1.3 0-2.37-.46-3.22-1.31-1.21-1.2-1.19-2.56-1.19-4.92s-.02-3.72 1.19-4.92c.85-.85 1.91-1.31 3.22-1.31s2.39.47 3.24 1.31c1.21 1.2 1.17 2.56 1.17 4.92s.04 3.72-1.17 4.92m-1.41-8.72c-.43-.46-1.1-.76-1.83-.76-.72 0-1.39.29-1.82.76-.6.65-.72 1.34-.72 3.81s.12 3.15.72 3.8c.43.47 1.1.76 1.82.76s1.4-.29 1.83-.76c.6-.65.72-1.34.72-3.8s-.12-3.16-.72-3.81" class="st0"/><path id="polygon11" d="M202.3 7.2h1.86v10.59h5.91v1.67h-7.77z" class="st0"/><path id="path11" d="M218.93 18.25c-.84.84-1.93 1.31-3.24 1.31s-2.38-.46-3.22-1.31c-1.21-1.2-1.19-2.56-1.19-4.92s-.02-3.72 1.19-4.92c.84-.85 1.91-1.31 3.22-1.31s2.39.47 3.24 1.31c1.21 1.2 1.17 2.56 1.17 4.92s.04 3.72-1.17 4.92m-1.41-8.72c-.43-.46-1.1-.76-1.83-.76s-1.4.29-1.82.76c-.61.65-.73 1.34-.73 3.81s.12 3.15.73 3.8c.43.47 1.1.76 1.82.76s1.4-.29 1.83-.76c.6-.65.72-1.34.72-3.8s-.11-3.16-.72-3.81" class="st0"/><path id="path12" d="M230.19 18.17c-.93.98-2.08 1.39-3.37 1.39-1.28 0-2.38-.46-3.22-1.31-1.2-1.2-1.19-2.56-1.19-4.92s-.01-3.72 1.19-4.92c.85-.85 1.91-1.31 3.22-1.31 2.6 0 4.11 1.7 4.46 3.81h-1.87c-.31-1.34-1.21-2.13-2.59-2.13-.72 0-1.38.29-1.81.75-.61.65-.75 1.34-.75 3.81 0 2.46.14 3.17.75 3.82.43.46 1.08.74 1.81.74.81 0 1.51-.31 2-.86.45-.52.62-1.14.62-1.93v-.69h-2.62v-1.58h4.47v1.88c0 1.57-.29 2.59-1.1 3.45" class="st0"/><path id="polygon12" d="M239.51 7.2h2.02l-3.66 7.21v5.05h-1.86v-5.05l-3.67-7.21h2.03l2.57 5.39z" class="st0"/><path id="path13" d="M139.98 41.08c-1.27 0-2.38-.46-3.22-1.31-1.2-1.2-1.19-2.56-1.19-4.92s-.02-3.72 1.19-4.92c.84-.84 1.95-1.31 3.22-1.31 2.26 0 3.95 1.33 4.37 3.77h-1.89c-.3-1.24-1.12-2.1-2.48-2.1-.72 0-1.37.28-1.81.74-.6.65-.74 1.36-.74 3.82s.14 3.17.74 3.82c.43.46 1.09.74 1.81.74 1.36 0 2.2-.86 2.5-2.1h1.87c-.41 2.45-2.15 3.77-4.37 3.77" class="st0"/><path id="path14" d="M154.55 39.77c-.85.84-1.93 1.31-3.24 1.31s-2.37-.46-3.22-1.31c-1.2-1.2-1.19-2.56-1.19-4.92s-.02-3.72 1.19-4.92c.85-.84 1.91-1.31 3.22-1.31s2.39.47 3.24 1.31c1.2 1.2 1.17 2.56 1.17 4.92s.04 3.72-1.17 4.92m-1.41-8.72c-.43-.46-1.11-.76-1.83-.76s-1.39.29-1.82.76c-.61.65-.72 1.34-.72 3.8s.12 3.15.72 3.8c.43.47 1.1.76 1.82.76s1.4-.29 1.83-.76c.6-.66.72-1.34.72-3.8s-.12-3.15-.72-3.8" class="st0"/><path id="polygon14" d="m160.69 28.72 5.67 8.61v-8.61h1.86v12.26h-1.7l-5.67-8.63v8.63h-1.86V28.72z" class="st0"/><path id="path15" d="M175.19 41.08c-1.84 0-3.17-.43-4.34-1.62l1.24-1.22c.9.89 1.87 1.17 3.13 1.17 1.6 0 2.53-.69 2.53-1.87 0-.54-.16-.98-.48-1.28-.31-.29-.62-.41-1.35-.52l-1.45-.21c-1-.14-1.79-.48-2.32-.98-.61-.57-.9-1.34-.9-2.34 0-2.14 1.55-3.6 4.09-3.6 1.62 0 2.76.41 3.81 1.4l-1.19 1.17c-.76-.72-1.63-.94-2.67-.94-1.45 0-2.24.82-2.24 1.91 0 .45.14.84.47 1.14.31.27.81.48 1.38.57l1.4.2c1.13.17 1.77.45 2.29.91.67.58 1 1.46 1 2.51.01 2.26-1.84 3.6-4.4 3.6" class="st0"/><path id="path16" d="M186.81 41.08c-2.5 0-4.39-1.7-4.39-4.24v-8.12h1.86v8.04c0 1.64.99 2.65 2.53 2.65 1.53 0 2.55-1.02 2.55-2.65v-8.04h1.86v8.12c-.01 2.54-1.91 4.24-4.41 4.24" class="st0"/><path id="polygon16" d="M194.75 28.72h1.86v10.59h5.9v1.67h-7.76z" class="st0"/><path id="polygon17" d="M207.91 40.98h-1.86V30.39h-3.37v-1.67h8.61v1.67h-3.38z" class="st0"/><path id="rect17" d="M213.92 28.72h1.86v12.26h-1.86z" class="st0"/><path id="polygon18" d="m221.21 28.72 5.66 8.61v-8.61h1.86v12.26h-1.71l-5.66-8.63v8.63h-1.86V28.72z" class="st0"/><path id="path18" d="M239.78 39.69c-.93.98-2.08 1.39-3.37 1.39-1.28 0-2.38-.47-3.22-1.31-1.21-1.2-1.19-2.56-1.19-4.92s-.02-3.72 1.19-4.92c.84-.84 1.91-1.31 3.22-1.31 2.6 0 4.11 1.7 4.46 3.81H239c-.31-1.34-1.2-2.13-2.58-2.13-.73 0-1.38.29-1.81.76-.6.65-.74 1.34-.74 3.81 0 2.46.14 3.17.74 3.82.43.46 1.08.74 1.81.74.81 0 1.52-.31 2-.86.45-.52.62-1.14.62-1.93v-.69h-2.61v-1.59h4.47v1.88c-.02 1.57-.31 2.59-1.12 3.45" class="st0"/></g></svg>