<svg xmlns="http://www.w3.org/2000/svg" xml:space="preserve" style="fill-rule:evenodd;clip-rule:evenodd;stroke-linejoin:round;stroke-miterlimit:1.41421" viewBox="0 0 708 708"><path d="M0-37.079V9.915h-11.109v-46.994h-14.868v-9.915h40.844v9.915z" style="fill:#0464a6;fill-rule:nonzero" transform="translate(155.685 430.342)scale(4.16667)"/><path d="M0 56.909-22.539 21.98v34.929H-33.65V0h9.912l22.539 34.85V0h11.11v56.909z" style="fill:#0464a6;fill-rule:nonzero" transform="translate(395.467 234.535)scale(4.16667)"/><path d="M0 44.912c-4.394 4.48-9.669 6.478-16.066 6.478q-9.106-.001-15.345-6.235c-2.475-2.478-3.993-5.358-4.637-8.552-.634-3.198-.958-7.911-.958-14.15 0-6.231.324-10.948.958-14.147.644-3.277 2.162-6.073 4.637-8.55 4.159-4.159 9.274-6.234 15.345-6.234 12.953 0 19.906 8.311 21.42 18.221H-5.834c-1.358-5.515-4.711-8.309-10.232-8.309-2.955 0-5.352 1.04-7.11 3.036-2.084 2.635-2.718 4.717-2.718 15.983 0 11.19.48 13.434 2.718 16.066 1.678 1.999 4.074 2.957 7.11 2.957 3.281 0 5.917-1.038 7.916-3.193 1.677-1.919 2.557-4.478 2.557-7.595v-2.159h-8.012V19.26h19.04v8.31c0 8.317-1.517 13.188-5.435 17.342" style="fill:#0464a6;fill-rule:nonzero" transform="translate(638.242 259.534)scale(4.16667)"/></svg>